<svg width="800" height="250" version="1.1" xmlns="http://www.w3.org/2000/svg" desc="Created with imagetracer.js version 1.2.6" ><path fill="rgb(0,0,0)" stroke="rgb(0,0,0)" stroke-width="1" opacity="0" d="M 0 0 L 799.5 0 L 800 0.5 L 800 250 L 0.5 250 L 0 249.5 L 0 0 Z M 621 69 L 610 74 L 606 84 L 606 104 Q 599 103 595 106 Q 588 110 586 119 L 586 167 L 588 173 Q 592 179 601 181 L 684 181 L 690 179 Q 696 175 698 167 L 698 84 L 696 78 Q 692 71 684 69 L 621 69 Z M 349 87 L 349 104 L 371 104 L 371 87 L 349 87 Z M 51 91 L 51 178 L 74 178 L 74 148 L 100 148 L 113 143 L 121 134 L 124 120 Q 121 118 123 112 L 119 103 Q 113 93 100 91 L 51 91 Z M 294 94 L 294 112 L 283 112 L 283 127 L 294 127 L 294 165 L 297 172 Q 301 176 308 178 L 335 178 L 335 163 L 319 162 L 316 160 L 315 155 L 315 127 L 337 127 L 337 112 L 315 112 L 315 94 L 294 94 Z M 160 110 L 147 115 Q 136 122 133 137 Q 131 156 138 167 Q 145 177 160 180 L 180 180 Q 189 178 195 173 Q 201 168 204 160 L 206 150 L 206 141 L 204 131 L 199 122 Q 193 114 184 111 L 180 110 L 160 110 Z M 235 110 L 224 114 Q 218 117 216 125 Q 214 136 218 143 L 228 150 L 253 155 Q 256 156 255 162 L 251 165 L 234 165 L 220 160 L 217 161 L 217 177 L 232 180 L 257 180 L 268 176 Q 274 172 276 165 Q 278 152 273 146 L 266 140 L 255 137 L 239 135 L 235 132 L 236 128 L 240 125 L 256 125 L 270 130 L 272 130 L 272 113 L 258 110 L 235 110 Z M 426 110 L 414 117 L 412 118 Q 413 112 412 112 L 390 112 L 390 178 L 412 178 L 412 139 L 415 132 L 421 127 Q 427 126 431 128 L 434 134 L 434 178 L 457 178 L 457 136 Q 454 134 456 128 L 451 117 Q 444 107 426 110 Z M 493 110 L 483 115 Q 473 122 471 137 Q 469 159 479 170 Q 484 175 493 178 Q 510 180 518 172 L 519 170 L 520 170 Q 521 178 518 183 Q 515 187 509 189 L 493 189 L 482 184 L 479 185 L 479 201 L 492 204 L 515 204 Q 525 202 532 197 Q 540 191 542 180 L 542 113 L 542 112 L 520 112 L 520 119 L 519 118 Q 514 112 507 110 L 493 110 Z M 349 112 L 349 178 L 371 178 L 371 112 L 349 112 Z " /><path fill="rgb(0,0,0)" stroke="rgb(0,0,0)" stroke-width="1" opacity="0" d="M 619.5 81 L 684.5 81 L 686 82.5 L 686 167.5 L 684.5 169 L 617.5 169 L 617 167.5 L 618 166.5 L 618 82.5 L 619.5 81 Z M 637 89 L 633 90 L 627 96 L 626 100 Q 624 110 628 116 Q 631 120 637 121 L 669 121 L 672 120 L 677 115 L 678 111 Q 680 100 676 95 Q 673 90 668 89 L 637 89 Z M 632 129 L 630 130 L 626 135 L 627 138 L 632 141 L 673 141 L 675 140 L 678 136 L 677 133 L 673 129 L 632 129 Z M 632 149 L 630 150 L 626 155 L 627 158 L 632 161 L 658 161 L 660 160 L 663 156 L 662 153 L 658 149 L 632 149 Z " /><path fill="rgb(0,0,0)" stroke="rgb(0,0,0)" stroke-width="1" opacity="0" d="M 638 101 L 665.5 101 L 666 101.5 L 666 109 L 638.5 109 L 638 108.5 L 638 101 Z " /><path fill="rgb(0,0,0)" stroke="rgb(0,0,0)" stroke-width="1" opacity="0" d="M 74 107 L 91.5 108 L 98 113.5 Q 100.3 116.7 99 123.5 L 93.5 130 L 85.5 132 L 74 132 L 74 107 Z " /><path fill="rgb(0,0,0)" stroke="rgb(0,0,0)" stroke-width="1" opacity="0" d="M 599.5 116 Q 605.8 115.3 606 116.5 L 606 167.5 Q 604.8 170.3 599.5 169 L 598 167.5 L 598 117.5 L 599.5 116 Z " /><path fill="rgb(0,0,0)" stroke="rgb(0,0,0)" stroke-width="1" opacity="0" d="M 164.5 126 Q 177.1 123.9 180 131.5 Q 184.5 138 183 150.5 Q 181.5 159 175.5 163 Q 172 165.5 164.5 164 L 159 159.5 Q 153.8 152.3 156 137.5 Q 157.6 130.6 162.5 127 L 164.5 126 Z " /><path fill="rgb(0,0,0)" stroke="rgb(0,0,0)" stroke-width="1" opacity="0" d="M 502.5 126 Q 514 124 517 130.5 Q 521.9 137 520 150.5 Q 518.4 157.4 513.5 161 Q 510 163.5 502.5 162 L 496 156.5 L 494 151.5 L 494 136.5 L 500.5 127 L 502.5 126 Z " /><path fill="rgb(80,80,80)" stroke="rgb(80,80,80)" stroke-width="1" opacity="0.03529411764705882" d="M 620.5 69 L 684 69.5 L 620.5 70 L 620.5 69 Z " /><path fill="rgb(80,80,80)" stroke="rgb(80,80,80)" stroke-width="1" opacity="0.03529411764705882" d="M 614.5 71 L 616 71.5 L 612.5 74 L 614.5 71 Z " /><path fill="rgb(80,80,80)" stroke="rgb(80,80,80)" stroke-width="1" opacity="0.03529411764705882" d="M 688.5 71 L 692 73.5 L 689.5 72 L 688.5 71 Z " /><path fill="rgb(80,80,80)" stroke="rgb(80,80,80)" stroke-width="1" opacity="0.03529411764705882" d="M 610.5 75 L 609 77.5 L 607.5 82 L 607 79.5 L 610.5 75 Z " /><path fill="rgb(80,80,80)" stroke="rgb(80,80,80)" stroke-width="1" opacity="0.03529411764705882" d="M 693.5 75 L 696 78.5 L 695 78.5 L 693.5 75 Z " /><path fill="rgb(80,80,80)" stroke="rgb(80,80,80)" stroke-width="1" opacity="0.03529411764705882" d="M 617.5 83 L 618 165.5 L 617 165.5 L 617.5 83 Z " /><path fill="rgb(80,80,80)" stroke="rgb(80,80,80)" stroke-width="1" opacity="0.03529411764705882" d="M 697.5 83 L 698 166.5 L 697 166.5 L 697.5 83 Z " /><path fill="rgb(80,80,80)" stroke="rgb(80,80,80)" stroke-width="1" opacity="0.03529411764705882" d="M 606.5 84 L 607 105 L 601 104.5 L 606 104 L 606.5 84 Z " /><path fill="rgb(80,80,80)" stroke="rgb(80,80,80)" stroke-width="1" opacity="0.03529411764705882" d="M 636.5 89 L 667 89.5 L 636.5 90 L 636.5 89 Z " /><path fill="rgb(80,80,80)" stroke="rgb(80,80,80)" stroke-width="1" opacity="0.03529411764705882" d="M 631.5 91 L 628.5 95 L 631.5 91 Z " /><path fill="rgb(80,80,80)" stroke="rgb(80,80,80)" stroke-width="1" opacity="0.03529411764705882" d="M 672.5 91 L 675.5 95 L 672.5 91 Z " /><path fill="rgb(80,80,80)" stroke="rgb(80,80,80)" stroke-width="1" opacity="0.03529411764705882" d="M 637 100 L 666.5 100 L 667 100.5 L 667 109.5 L 666 109.5 L 666 101.5 L 665.5 101 L 638 101 L 637.5 110 L 637 100 Z " /><path fill="rgb(80,80,80)" stroke="rgb(80,80,80)" stroke-width="1" opacity="0.03529411764705882" d="M 677.5 100 L 678 109.5 L 677 109.5 L 677.5 100 Z " /><path fill="rgb(80,80,80)" stroke="rgb(80,80,80)" stroke-width="1" opacity="0.03529411764705882" d="M 596.5 105 L 599 105.5 L 592.5 109 L 594.5 106 L 596.5 105 Z " /><path fill="rgb(80,80,80)" stroke="rgb(80,80,80)" stroke-width="1" opacity="0.03529411764705882" d="M 590.5 110 L 589 112.5 L 588.5 114 L 588 112.5 L 590.5 110 Z " /><path fill="rgb(80,80,80)" stroke="rgb(80,80,80)" stroke-width="1" opacity="0.03529411764705882" d="M 600.5 115 Q 606.8 114.3 607 115.5 L 607 166.5 L 606 166.5 L 606 116.5 Q 605.9 115.4 600.5 116 L 600.5 115 Z " /><path fill="rgb(80,80,80)" stroke="rgb(80,80,80)" stroke-width="1" opacity="0.03529411764705882" d="M 628.5 115 L 631.5 119 L 628.5 115 Z " /><path fill="rgb(80,80,80)" stroke="rgb(80,80,80)" stroke-width="1" opacity="0.03529411764705882" d="M 675.5 115 L 672.5 119 L 675.5 115 Z " /><path fill="rgb(80,80,80)" stroke="rgb(80,80,80)" stroke-width="1" opacity="0.03529411764705882" d="M 586.5 118 L 587 166.5 L 586 166.5 L 586.5 118 Z " /><path fill="rgb(80,80,80)" stroke="rgb(80,80,80)" stroke-width="1" opacity="0.03529411764705882" d="M 636.5 120 L 668 120.5 L 636.5 121 L 636.5 120 Z " /><path fill="rgb(80,80,80)" stroke="rgb(80,80,80)" stroke-width="1" opacity="0.03529411764705882" d="M 631.5 129 L 673 129.5 L 631.5 130 L 631.5 129 Z " /><path fill="rgb(80,80,80)" stroke="rgb(80,80,80)" stroke-width="1" opacity="0.03529411764705882" d="M 629.5 130 L 627.5 133 L 629.5 130 Z " /><path fill="rgb(80,80,80)" stroke="rgb(80,80,80)" stroke-width="1" opacity="0.03529411764705882" d="M 674.5 130 L 676.5 133 L 674.5 130 Z " /><path fill="rgb(80,80,80)" stroke="rgb(80,80,80)" stroke-width="1" opacity="0.03529411764705882" d="M 627.5 137 L 629.5 140 L 627.5 137 Z " /><path fill="rgb(80,80,80)" stroke="rgb(80,80,80)" stroke-width="1" opacity="0.03529411764705882" d="M 676.5 137 L 674.5 140 L 676.5 137 Z " /><path fill="rgb(80,80,80)" stroke="rgb(80,80,80)" stroke-width="1" opacity="0.03529411764705882" d="M 631.5 149 L 658 149.5 L 631.5 150 L 631.5 149 Z " /><path fill="rgb(80,80,80)" stroke="rgb(80,80,80)" stroke-width="1" opacity="0.03529411764705882" d="M 629.5 150 L 627.5 153 L 629.5 150 Z " /><path fill="rgb(80,80,80)" stroke="rgb(80,80,80)" stroke-width="1" opacity="0.03529411764705882" d="M 659.5 150 L 661.5 153 L 659.5 150 Z " /><path fill="rgb(80,80,80)" stroke="rgb(80,80,80)" stroke-width="1" opacity="0.03529411764705882" d="M 627.5 157 L 629.5 160 L 627.5 157 Z " /><path fill="rgb(80,80,80)" stroke="rgb(80,80,80)" stroke-width="1" opacity="0.03529411764705882" d="M 661.5 157 L 659.5 160 L 661.5 157 Z " /><path fill="rgb(80,80,80)" stroke="rgb(80,80,80)" stroke-width="1" opacity="0.03529411764705882" d="M 631.5 160 L 658 160.5 L 631.5 161 L 631.5 160 Z " /><path fill="rgb(80,80,80)" stroke="rgb(80,80,80)" stroke-width="1" opacity="0.03529411764705882" d="M 600.5 169 L 604 169.5 L 600.5 170 L 600.5 169 Z " /><path fill="rgb(80,80,80)" stroke="rgb(80,80,80)" stroke-width="1" opacity="0.03529411764705882" d="M 588.5 171 L 591 174.5 L 588 172.5 L 588.5 171 Z " /><path fill="rgb(80,80,80)" stroke="rgb(80,80,80)" stroke-width="1" opacity="0.03529411764705882" d="M 695.5 171 L 696 172.5 L 693 174.5 L 695.5 171 Z " /><path fill="rgb(80,80,80)" stroke="rgb(80,80,80)" stroke-width="1" opacity="0.03529411764705882" d="M 592.5 176 L 596 178.5 L 594.5 179 L 592.5 176 Z " /><path fill="rgb(80,80,80)" stroke="rgb(80,80,80)" stroke-width="1" opacity="0.03529411764705882" d="M 691.5 176 L 689.5 179 L 688 178.5 L 691.5 176 Z " /><path fill="rgb(80,80,80)" stroke="rgb(80,80,80)" stroke-width="1" opacity="0.03529411764705882" d="M 600.5 180 L 684 180.5 L 600.5 181 L 600.5 180 Z " /><path fill="rgb(254,254,254)" stroke="rgb(254,254,254)" stroke-width="1" opacity="0.9921568627450981" d="M 617.5 71 L 686.5 71 L 694 76.5 L 696 80.5 L 696 169.5 L 690.5 177 L 686.5 179 L 597.5 179 L 590 173.5 L 588 169.5 L 588 115.5 L 593.5 108 Q 597.5 104.5 606.5 106 L 608 104.5 L 608 80.5 L 613.5 73 L 617.5 71 Z M 620 80 L 616 85 L 616 170 L 685 170 L 687 168 L 687 83 L 685 80 L 620 80 Z M 602 114 L 600 115 L 597 118 L 597 168 Q 598 171 605 170 L 608 166 L 608 116 Q 607 113 602 114 Z " /><path fill="rgb(254,254,254)" stroke="rgb(254,254,254)" stroke-width="1" opacity="0.9921568627450981" d="M 349 87 L 370 87 L 370 104 L 349 104 L 349 87 Z " /><path fill="rgb(254,254,254)" stroke="rgb(254,254,254)" stroke-width="1" opacity="0.9921568627450981" d="M 51 91 L 95.5 91 L 109.5 95 L 119 103.5 L 123 114.5 L 123 124.5 Q 121 136.5 112.5 142 L 104.5 146 L 95.5 148 L 73 148 L 73 178 L 51 178 L 51 91 Z M 73 107 L 73 132 L 91 132 L 94 131 Q 99 129 100 123 L 100 117 L 97 110 L 91 107 L 73 107 Z " /><path fill="rgb(254,254,254)" stroke="rgb(254,254,254)" stroke-width="1" opacity="0.9921568627450981" d="M 633.5 91 L 670.5 91 L 675 94.5 L 676 96.5 L 676 113.5 L 672.5 118 L 670.5 119 L 633.5 119 L 629 115.5 Q 625.9 110.1 627 100.5 L 629 94.5 L 631.5 92 L 633.5 91 Z M 638 99 L 636 101 L 636 110 L 668 110 L 668 110 L 668 101 L 667 99 L 638 99 Z " /><path fill="rgb(254,254,254)" stroke="rgb(254,254,254)" stroke-width="1" opacity="0.9921568627450981" d="M 294 94 L 315 94 L 315 112 L 337 112 L 337 127 L 315 127 L 315 158.5 L 317.5 162 L 319.5 163 L 335 163 L 335 178 L 311.5 178 L 303.5 176 L 298 171.5 L 294 160.5 L 294 127 L 284 127 L 284 112 L 294 112 L 294 94 Z " /><path fill="rgb(254,254,254)" stroke="rgb(254,254,254)" stroke-width="1" opacity="0.9921568627450981" d="M 163.5 110 Q 188.3 108.3 198 121.5 Q 203.4 127.6 205 137.5 L 205 152.5 Q 202.7 166.2 193.5 173 Q 183.3 181.3 163.5 180 L 149.5 176 L 139 166.5 L 134 155.5 L 133 140.5 L 137 126.5 L 146.5 116 L 154.5 112 L 163.5 110 Z M 166 125 L 162 127 Q 156 131 155 139 Q 153 152 158 160 L 166 165 Q 172 166 176 164 L 182 157 L 184 146 L 183 137 L 181 132 Q 178 124 166 125 Z " /><path fill="rgb(254,254,254)" stroke="rgb(254,254,254)" stroke-width="1" opacity="0.9921568627450981" d="M 238.5 110 L 252.5 110 L 271 114 L 270.5 130 Q 259.8 122.7 240.5 124 L 235 127.5 Q 233.8 133.8 237.5 135 L 260.5 139 L 272 145.5 Q 276.4 151.1 276 161.5 Q 274 171.5 266.5 176 L 252.5 180 L 237.5 180 L 217 176 L 217.5 160 L 220.5 162 L 235.5 166 L 249.5 166 L 255 162.5 L 256 157.5 L 249.5 153 Q 236.1 152.9 226.5 149 L 219 142.5 L 217 138.5 L 216 128.5 L 219 119.5 L 223.5 115 L 226.5 113 L 238.5 110 Z " /><path fill="rgb(254,254,254)" stroke="rgb(254,254,254)" stroke-width="1" opacity="0.9921568627450981" d="M 428.5 110 Q 443.8 108.8 450 116.5 L 454 123.5 L 456 131.5 L 456 178 L 435 178 L 435 134.5 L 430.5 127 L 421.5 126 L 415 130.5 L 411 139.5 L 411 178 L 390.5 178 L 390 177.5 L 390 112 L 411 112 L 411 120.5 L 413 119.5 Q 412.3 117.3 414.5 118 Q 419.1 111.6 428.5 110 Z " /><path fill="rgb(254,254,254)" stroke="rgb(254,254,254)" stroke-width="1" opacity="0.9921568627450981" d="M 495.5 110 Q 512.3 109.2 519 118.5 L 520.5 121 L 521 112 L 541.5 112 L 542 112.5 L 542 175.5 L 538 188.5 L 530.5 197 L 516.5 203 L 495.5 204 L 481.5 201 L 480 199.5 L 480 185.5 L 481.5 185 L 494.5 190 L 507.5 190 Q 514.5 188.4 518 183.5 L 521 175.5 L 521 167.5 L 519 168.5 L 516.5 172 Q 509.8 178.8 495.5 178 Q 484.5 176 479 168.5 L 473 157.5 L 471 143.5 L 472 142.5 L 472 134.5 L 475 125.5 L 483.5 115 L 495.5 110 Z M 504 125 L 500 127 Q 494 131 493 139 Q 492 151 496 158 L 504 163 Q 511 164 515 161 L 518 158 L 521 149 L 521 140 L 518 131 L 511 125 L 504 125 Z " /><path fill="rgb(254,254,254)" stroke="rgb(254,254,254)" stroke-width="1" opacity="0.9921568627450981" d="M 349 112 L 369.5 112 L 370 112.5 L 370 178 L 349.5 178 L 349 177.5 L 349 112 Z " /><path fill="rgb(254,254,254)" stroke="rgb(254,254,254)" stroke-width="1" opacity="0.9921568627450981" d="M 629.5 131 L 674.5 131 L 676 132.5 Q 677.3 137.8 674.5 139 L 671.5 140 L 632.5 140 L 628 137.5 Q 626.8 132.3 629.5 131 Z " /><path fill="rgb(254,254,254)" stroke="rgb(254,254,254)" stroke-width="1" opacity="0.9921568627450981" d="M 629.5 151 L 659.5 151 L 661 152.5 Q 662.3 157.8 659.5 159 L 629.5 159 L 628 157.5 Q 626.8 152.3 629.5 151 Z " /><path fill="rgb(221,221,221)" stroke="rgb(221,221,221)" stroke-width="1" opacity="0.7568627450980392" d="M 619.5 70 L 685 70.5 L 619.5 71 L 619.5 70 Z " /><path fill="rgb(221,221,221)" stroke="rgb(221,221,221)" stroke-width="1" opacity="0.7568627450980392" d="M 607.5 82 L 608 104.5 Q 606.3 107.8 599.5 106 L 599.5 105 L 607 105 L 607.5 82 Z " /><path fill="rgb(221,221,221)" stroke="rgb(221,221,221)" stroke-width="1" opacity="0.7568627450980392" d="M 696.5 82 L 697 167.5 L 696 167.5 L 696.5 82 Z " /><path fill="rgb(221,221,221)" stroke="rgb(221,221,221)" stroke-width="1" opacity="0.7568627450980392" d="M 616.5 84 L 617 167.5 L 616 167.5 L 616.5 84 Z " /><path fill="rgb(221,221,221)" stroke="rgb(221,221,221)" stroke-width="1" opacity="0.7568627450980392" d="M 634.5 90 L 670 90.5 L 634.5 91 L 634.5 90 Z " /><path fill="rgb(221,221,221)" stroke="rgb(221,221,221)" stroke-width="1" opacity="0.7568627450980392" d="M 627.5 97 L 628 99.5 L 627 99.5 L 627.5 97 Z " /><path fill="rgb(221,221,221)" stroke="rgb(221,221,221)" stroke-width="1" opacity="0.7568627450980392" d="M 676.5 97 L 677 112.5 L 676 112.5 L 676.5 97 Z " /><path fill="rgb(221,221,221)" stroke="rgb(221,221,221)" stroke-width="1" opacity="0.7568627450980392" d="M 637.5 99 L 666.5 99 L 668 100.5 L 667.5 110 L 667 100 L 637.5 100 L 637 100.5 L 637 109.5 L 636 109.5 L 636 100.5 L 637.5 99 Z " /><path fill="rgb(221,221,221)" stroke="rgb(221,221,221)" stroke-width="1" opacity="0.7568627450980392" d="M 601.5 114 Q 606.8 112.8 608 115.5 L 607.5 166 L 607 115 L 601.5 115 L 601.5 114 Z " /><path fill="rgb(221,221,221)" stroke="rgb(221,221,221)" stroke-width="1" opacity="0.7568627450980392" d="M 587.5 117 L 588 167.5 L 587 167.5 L 587.5 117 Z " /><path fill="rgb(221,221,221)" stroke="rgb(221,221,221)" stroke-width="1" opacity="0.7568627450980392" d="M 634.5 119 L 670 119.5 L 634.5 120 L 634.5 119 Z " /><path fill="rgb(221,221,221)" stroke="rgb(221,221,221)" stroke-width="1" opacity="0.7568627450980392" d="M 630.5 130 L 674 130.5 L 630.5 131 L 630.5 130 Z " /><path fill="rgb(221,221,221)" stroke="rgb(221,221,221)" stroke-width="1" opacity="0.7568627450980392" d="M 627.5 133 L 628 136.5 L 627 136.5 L 627.5 133 Z " /><path fill="rgb(221,221,221)" stroke="rgb(221,221,221)" stroke-width="1" opacity="0.7568627450980392" d="M 676.5 133 L 677 136.5 L 676 136.5 L 676.5 133 Z " /><path fill="rgb(221,221,221)" stroke="rgb(221,221,221)" stroke-width="1" opacity="0.7568627450980392" d="M 630.5 150 L 659 150.5 L 630.5 151 L 630.5 150 Z " /><path fill="rgb(221,221,221)" stroke="rgb(221,221,221)" stroke-width="1" opacity="0.7568627450980392" d="M 627.5 153 L 628 156.5 L 627 156.5 L 627.5 153 Z " /><path fill="rgb(221,221,221)" stroke="rgb(221,221,221)" stroke-width="1" opacity="0.7568627450980392" d="M 661.5 153 L 662 156.5 L 661 156.5 L 661.5 153 Z " /><path fill="rgb(221,221,221)" stroke="rgb(221,221,221)" stroke-width="1" opacity="0.7568627450980392" d="M 630.5 159 L 659 159.5 L 630.5 160 L 630.5 159 Z " /><path fill="rgb(221,221,221)" stroke="rgb(221,221,221)" stroke-width="1" opacity="0.7568627450980392" d="M 599.5 179 L 685 179.5 L 599.5 180 L 599.5 179 Z " /><path fill="rgb(254,254,254)" stroke="rgb(254,254,254)" stroke-width="1" opacity="0.18823529411764706" d="M 622.5 80 L 682 80.5 L 622.5 81 L 622.5 80 Z " /><path fill="rgb(254,254,254)" stroke="rgb(254,254,254)" stroke-width="1" opacity="0.18823529411764706" d="M 686.5 85 L 687 164.5 L 686 164.5 L 686.5 85 Z " /><path fill="rgb(254,254,254)" stroke="rgb(254,254,254)" stroke-width="1" opacity="0.18823529411764706" d="M 370.5 87 L 371 103.5 L 370 103.5 L 370.5 87 Z " /><path fill="rgb(254,254,254)" stroke="rgb(254,254,254)" stroke-width="1" opacity="0.18823529411764706" d="M 96.5 91 L 100 91.5 L 96.5 92 L 96.5 91 Z " /><path fill="rgb(254,254,254)" stroke="rgb(254,254,254)" stroke-width="1" opacity="0.18823529411764706" d="M 101.5 92 L 104 92.5 L 101.5 93 L 101.5 92 Z " /><path fill="rgb(254,254,254)" stroke="rgb(254,254,254)" stroke-width="1" opacity="0.18823529411764706" d="M 105.5 93 L 109 94.5 L 107.5 95 L 105.5 93 Z " /><path fill="rgb(254,254,254)" stroke="rgb(254,254,254)" stroke-width="1" opacity="0.18823529411764706" d="M 110.5 95 L 119 102.5 L 112.5 97 L 110.5 95 Z " /><path fill="rgb(254,254,254)" stroke="rgb(254,254,254)" stroke-width="1" opacity="0.18823529411764706" d="M 626.5 99 L 627 110.5 L 626 110.5 L 626.5 99 Z " /><path fill="rgb(254,254,254)" stroke="rgb(254,254,254)" stroke-width="1" opacity="0.18823529411764706" d="M 119.5 104 L 121 106.5 L 120 106.5 L 119.5 104 Z " /><path fill="rgb(254,254,254)" stroke="rgb(254,254,254)" stroke-width="1" opacity="0.18823529411764706" d="M 73.5 107 L 74 131.5 L 73 131.5 L 73.5 107 Z " /><path fill="rgb(254,254,254)" stroke="rgb(254,254,254)" stroke-width="1" opacity="0.18823529411764706" d="M 86.5 107 L 91 107.5 L 86.5 108 L 86.5 107 Z " /><path fill="rgb(254,254,254)" stroke="rgb(254,254,254)" stroke-width="1" opacity="0.18823529411764706" d="M 92.5 108 L 97 110 L 99 114.5 L 98 114.5 L 93.5 109 L 92.5 108 Z " /><path fill="rgb(254,254,254)" stroke="rgb(254,254,254)" stroke-width="1" opacity="0.18823529411764706" d="M 638.5 109 L 666 109.5 L 638.5 110 L 638.5 109 Z " /><path fill="rgb(254,254,254)" stroke="rgb(254,254,254)" stroke-width="1" opacity="0.18823529411764706" d="M 159.5 110 L 163 110.5 L 159.5 111 L 159.5 110 Z " /><path fill="rgb(254,254,254)" stroke="rgb(254,254,254)" stroke-width="1" opacity="0.18823529411764706" d="M 176.5 110 L 180 110.5 L 176.5 111 L 176.5 110 Z " /><path fill="rgb(254,254,254)" stroke="rgb(254,254,254)" stroke-width="1" opacity="0.18823529411764706" d="M 234.5 110 L 238 110.5 L 234.5 111 L 234.5 110 Z " /><path fill="rgb(254,254,254)" stroke="rgb(254,254,254)" stroke-width="1" opacity="0.18823529411764706" d="M 253.5 110 L 258 110.5 L 253.5 111 L 253.5 110 Z " /><path fill="rgb(254,254,254)" stroke="rgb(254,254,254)" stroke-width="1" opacity="0.18823529411764706" d="M 425.5 110 L 428 110.5 L 425.5 111 L 425.5 110 Z " /><path fill="rgb(254,254,254)" stroke="rgb(254,254,254)" stroke-width="1" opacity="0.18823529411764706" d="M 438.5 110 L 441 110.5 L 438.5 111 L 438.5 110 Z " /><path fill="rgb(254,254,254)" stroke="rgb(254,254,254)" stroke-width="1" opacity="0.18823529411764706" d="M 492.5 110 L 495 110.5 L 492.5 111 L 492.5 110 Z " /><path fill="rgb(254,254,254)" stroke="rgb(254,254,254)" stroke-width="1" opacity="0.18823529411764706" d="M 504.5 110 L 507 110.5 L 504.5 111 L 504.5 110 Z " /><path fill="rgb(254,254,254)" stroke="rgb(254,254,254)" stroke-width="1" opacity="0.18823529411764706" d="M 122.5 111 L 123 113.5 L 122 113.5 L 122.5 111 Z " /><path fill="rgb(254,254,254)" stroke="rgb(254,254,254)" stroke-width="1" opacity="0.18823529411764706" d="M 181.5 111 L 184 111.5 L 181.5 112 L 181.5 111 Z " /><path fill="rgb(254,254,254)" stroke="rgb(254,254,254)" stroke-width="1" opacity="0.18823529411764706" d="M 260.5 111 L 263 111.5 L 260.5 112 L 260.5 111 Z " /><path fill="rgb(254,254,254)" stroke="rgb(254,254,254)" stroke-width="1" opacity="0.18823529411764706" d="M 422.5 111 L 424 111.5 L 413 118 L 411.5 121 L 411 112.5 L 412 112.5 L 412.5 118 L 422.5 111 Z " /><path fill="rgb(254,254,254)" stroke="rgb(254,254,254)" stroke-width="1" opacity="0.18823529411764706" d="M 442.5 111 L 451 116.5 L 454 122.5 L 453 122.5 L 448.5 115 L 442.5 112 L 442.5 111 Z " /><path fill="rgb(254,254,254)" stroke="rgb(254,254,254)" stroke-width="1" opacity="0.18823529411764706" d="M 152.5 112 L 154 112.5 Q 144.1 115.6 139 123.5 L 137.5 126 L 138 124.5 L 146.5 115 L 152.5 112 Z " /><path fill="rgb(254,254,254)" stroke="rgb(254,254,254)" stroke-width="1" opacity="0.18823529411764706" d="M 265.5 112 L 268 112.5 L 265.5 113 L 265.5 112 Z " /><path fill="rgb(254,254,254)" stroke="rgb(254,254,254)" stroke-width="1" opacity="0.18823529411764706" d="M 283.5 112 L 284 126.5 L 283 126.5 L 283.5 112 Z " /><path fill="rgb(254,254,254)" stroke="rgb(254,254,254)" stroke-width="1" opacity="0.18823529411764706" d="M 370.5 112 L 371 177.5 L 370 177.5 L 370.5 112 Z " /><path fill="rgb(254,254,254)" stroke="rgb(254,254,254)" stroke-width="1" opacity="0.18823529411764706" d="M 511.5 112 L 516 115.5 L 513.5 114 L 511.5 112 Z " /><path fill="rgb(254,254,254)" stroke="rgb(254,254,254)" stroke-width="1" opacity="0.18823529411764706" d="M 520.5 112 L 521 120.5 L 519 119.5 L 520.5 112 Z " /><path fill="rgb(254,254,254)" stroke="rgb(254,254,254)" stroke-width="1" opacity="0.18823529411764706" d="M 187.5 113 L 190 114.5 L 188.5 114 L 187.5 113 Z " /><path fill="rgb(254,254,254)" stroke="rgb(254,254,254)" stroke-width="1" opacity="0.18823529411764706" d="M 225.5 113 L 224.5 115 L 219 119.5 L 217.5 123 L 217 121.5 L 223.5 114 L 225.5 113 Z " /><path fill="rgb(254,254,254)" stroke="rgb(254,254,254)" stroke-width="1" opacity="0.18823529411764706" d="M 269.5 113 L 272 113.5 L 272 129.5 L 271 129.5 L 271 114.5 L 269.5 114 L 269.5 113 Z " /><path fill="rgb(254,254,254)" stroke="rgb(254,254,254)" stroke-width="1" opacity="0.18823529411764706" d="M 485.5 113 L 484.5 115 L 485.5 113 Z " /><path fill="rgb(254,254,254)" stroke="rgb(254,254,254)" stroke-width="1" opacity="0.18823529411764706" d="M 191.5 115 L 192.5 117 L 191.5 115 Z " /><path fill="rgb(254,254,254)" stroke="rgb(254,254,254)" stroke-width="1" opacity="0.18823529411764706" d="M 482.5 115 L 479 119.5 L 475.5 125 L 476 123.5 L 482.5 115 Z " /><path fill="rgb(254,254,254)" stroke="rgb(254,254,254)" stroke-width="1" opacity="0.18823529411764706" d="M 99.5 116 L 100 122.5 L 99 122.5 L 99.5 116 Z " /><path fill="rgb(254,254,254)" stroke="rgb(254,254,254)" stroke-width="1" opacity="0.18823529411764706" d="M 517.5 116 L 518.5 118 L 517.5 116 Z " /><path fill="rgb(254,254,254)" stroke="rgb(254,254,254)" stroke-width="1" opacity="0.18823529411764706" d="M 194.5 117 L 202 126.5 L 200 125.5 L 194.5 117 Z " /><path fill="rgb(254,254,254)" stroke="rgb(254,254,254)" stroke-width="1" opacity="0.18823529411764706" d="M 597.5 120 L 598 164.5 L 597 164.5 L 597.5 120 Z " /><path fill="rgb(254,254,254)" stroke="rgb(254,254,254)" stroke-width="1" opacity="0.18823529411764706" d="M 98.5 124 L 99 125.5 L 92.5 131 L 92.5 130 L 98 125.5 L 98.5 124 Z " /><path fill="rgb(254,254,254)" stroke="rgb(254,254,254)" stroke-width="1" opacity="0.18823529411764706" d="M 216.5 124 L 217 127.5 L 216 127.5 L 216.5 124 Z " /><path fill="rgb(254,254,254)" stroke="rgb(254,254,254)" stroke-width="1" opacity="0.18823529411764706" d="M 240.5 124 L 254 124.5 L 240.5 125 L 240.5 124 Z " /><path fill="rgb(254,254,254)" stroke="rgb(254,254,254)" stroke-width="1" opacity="0.18823529411764706" d="M 122.5 125 L 123 127.5 L 122 127.5 L 122.5 125 Z " /><path fill="rgb(254,254,254)" stroke="rgb(254,254,254)" stroke-width="1" opacity="0.18823529411764706" d="M 165.5 125 L 173 125.5 L 165.5 126 L 165.5 125 Z " /><path fill="rgb(254,254,254)" stroke="rgb(254,254,254)" stroke-width="1" opacity="0.18823529411764706" d="M 256.5 125 L 259 125.5 L 256.5 126 L 256.5 125 Z " /><path fill="rgb(254,254,254)" stroke="rgb(254,254,254)" stroke-width="1" opacity="0.18823529411764706" d="M 503.5 125 L 511 125.5 L 503.5 126 L 503.5 125 Z " /><path fill="rgb(254,254,254)" stroke="rgb(254,254,254)" stroke-width="1" opacity="0.18823529411764706" d="M 174.5 126 L 181 131.5 L 182 134.5 L 181 134.5 L 175.5 127 L 174.5 126 Z " /><path fill="rgb(254,254,254)" stroke="rgb(254,254,254)" stroke-width="1" opacity="0.18823529411764706" d="M 236.5 126 L 236 127.5 L 235.5 129 L 235 127.5 L 236.5 126 Z " /><path fill="rgb(254,254,254)" stroke="rgb(254,254,254)" stroke-width="1" opacity="0.18823529411764706" d="M 421.5 126 Q 430.5 124.5 433 129.5 L 430.5 128 L 421.5 127 L 421.5 126 Z " /><path fill="rgb(254,254,254)" stroke="rgb(254,254,254)" stroke-width="1" opacity="0.18823529411764706" d="M 474.5 126 L 475 127.5 L 473.5 130 L 473 128.5 L 474.5 126 Z " /><path fill="rgb(254,254,254)" stroke="rgb(254,254,254)" stroke-width="1" opacity="0.18823529411764706" d="M 161.5 127 L 159 130.5 L 156.5 137 L 156 134.5 L 161.5 127 Z " /><path fill="rgb(254,254,254)" stroke="rgb(254,254,254)" stroke-width="1" opacity="0.18823529411764706" d="M 455.5 127 L 456 130.5 L 455 130.5 L 455.5 127 Z " /><path fill="rgb(254,254,254)" stroke="rgb(254,254,254)" stroke-width="1" opacity="0.18823529411764706" d="M 499.5 127 L 497 130.5 L 495.5 133 L 496 131.5 L 499.5 127 Z " /><path fill="rgb(254,254,254)" stroke="rgb(254,254,254)" stroke-width="1" opacity="0.18823529411764706" d="M 514.5 127 L 519 133.5 L 518 133.5 L 514.5 127 Z " /><path fill="rgb(254,254,254)" stroke="rgb(254,254,254)" stroke-width="1" opacity="0.18823529411764706" d="M 202.5 128 L 204 132.5 L 203 132.5 L 202.5 128 Z " /><path fill="rgb(254,254,254)" stroke="rgb(254,254,254)" stroke-width="1" opacity="0.18823529411764706" d="M 417.5 128 L 415.5 131 L 417.5 128 Z " /><path fill="rgb(254,254,254)" stroke="rgb(254,254,254)" stroke-width="1" opacity="0.18823529411764706" d="M 86.5 131 L 91 131.5 L 86.5 132 L 86.5 131 Z " /><path fill="rgb(254,254,254)" stroke="rgb(254,254,254)" stroke-width="1" opacity="0.18823529411764706" d="M 472.5 131 L 473 133.5 L 472 133.5 L 472.5 131 Z " /><path fill="rgb(254,254,254)" stroke="rgb(254,254,254)" stroke-width="1" opacity="0.18823529411764706" d="M 120.5 132 L 121 133.5 L 119 134.5 L 120.5 132 Z " /><path fill="rgb(254,254,254)" stroke="rgb(254,254,254)" stroke-width="1" opacity="0.18823529411764706" d="M 235.5 132 L 237.5 135 L 235.5 132 Z " /><path fill="rgb(254,254,254)" stroke="rgb(254,254,254)" stroke-width="1" opacity="0.18823529411764706" d="M 414.5 132 L 414 133.5 L 413.5 135 L 413 133.5 L 414.5 132 Z " /><path fill="rgb(254,254,254)" stroke="rgb(254,254,254)" stroke-width="1" opacity="0.18823529411764706" d="M 204.5 134 L 205 136.5 L 204 136.5 L 204.5 134 Z " /><path fill="rgb(254,254,254)" stroke="rgb(254,254,254)" stroke-width="1" opacity="0.18823529411764706" d="M 216.5 134 L 217 137.5 L 216 137.5 L 216.5 134 Z " /><path fill="rgb(254,254,254)" stroke="rgb(254,254,254)" stroke-width="1" opacity="0.18823529411764706" d="M 434.5 134 L 435 177.5 L 434 177.5 L 434.5 134 Z " /><path fill="rgb(254,254,254)" stroke="rgb(254,254,254)" stroke-width="1" opacity="0.18823529411764706" d="M 239.5 135 L 242 135.5 L 239.5 136 L 239.5 135 Z " /><path fill="rgb(254,254,254)" stroke="rgb(254,254,254)" stroke-width="1" opacity="0.18823529411764706" d="M 456.5 135 L 457 177.5 L 456 177.5 L 456.5 135 Z " /><path fill="rgb(254,254,254)" stroke="rgb(254,254,254)" stroke-width="1" opacity="0.18823529411764706" d="M 118.5 136 L 112.5 143 L 110.5 144 L 111.5 142 L 118.5 136 Z " /><path fill="rgb(254,254,254)" stroke="rgb(254,254,254)" stroke-width="1" opacity="0.18823529411764706" d="M 133.5 136 L 134 139.5 L 133 139.5 L 133.5 136 Z " /><path fill="rgb(254,254,254)" stroke="rgb(254,254,254)" stroke-width="1" opacity="0.18823529411764706" d="M 182.5 136 L 183 138.5 L 182 138.5 L 182.5 136 Z " /><path fill="rgb(254,254,254)" stroke="rgb(254,254,254)" stroke-width="1" opacity="0.18823529411764706" d="M 244.5 136 L 249 136.5 L 244.5 137 L 244.5 136 Z " /><path fill="rgb(254,254,254)" stroke="rgb(254,254,254)" stroke-width="1" opacity="0.18823529411764706" d="M 471.5 136 L 472 142.5 L 471 142.5 L 471.5 136 Z " /><path fill="rgb(254,254,254)" stroke="rgb(254,254,254)" stroke-width="1" opacity="0.18823529411764706" d="M 251.5 137 L 255 137.5 L 251.5 138 L 251.5 137 Z " /><path fill="rgb(254,254,254)" stroke="rgb(254,254,254)" stroke-width="1" opacity="0.18823529411764706" d="M 155.5 138 L 156 151.5 L 155 151.5 L 155.5 138 Z " /><path fill="rgb(254,254,254)" stroke="rgb(254,254,254)" stroke-width="1" opacity="0.18823529411764706" d="M 257.5 138 L 260 138.5 L 257.5 139 L 257.5 138 Z " /><path fill="rgb(254,254,254)" stroke="rgb(254,254,254)" stroke-width="1" opacity="0.18823529411764706" d="M 493.5 138 L 494 149.5 L 493 149.5 L 493.5 138 Z " /><path fill="rgb(254,254,254)" stroke="rgb(254,254,254)" stroke-width="1" opacity="0.18823529411764706" d="M 217.5 139 L 223.5 147 L 226 148.5 L 224.5 148 L 218 142.5 L 217.5 139 Z " /><path fill="rgb(254,254,254)" stroke="rgb(254,254,254)" stroke-width="1" opacity="0.18823529411764706" d="M 411.5 139 L 412 177.5 L 411 177.5 L 411.5 139 Z " /><path fill="rgb(254,254,254)" stroke="rgb(254,254,254)" stroke-width="1" opacity="0.18823529411764706" d="M 520.5 139 L 521 148.5 L 520 148.5 L 520.5 139 Z " /><path fill="rgb(254,254,254)" stroke="rgb(254,254,254)" stroke-width="1" opacity="0.18823529411764706" d="M 205.5 140 L 206 149.5 L 205 149.5 L 205.5 140 Z " /><path fill="rgb(254,254,254)" stroke="rgb(254,254,254)" stroke-width="1" opacity="0.18823529411764706" d="M 264.5 140 L 269 142.5 L 267.5 142 Q 263.8 141.8 264.5 140 Z " /><path fill="rgb(254,254,254)" stroke="rgb(254,254,254)" stroke-width="1" opacity="0.18823529411764706" d="M 631.5 140 L 673 140.5 L 631.5 141 L 631.5 140 Z " /><path fill="rgb(254,254,254)" stroke="rgb(254,254,254)" stroke-width="1" opacity="0.18823529411764706" d="M 270.5 143 L 274 147.5 L 272 146.5 L 270.5 143 Z " /><path fill="rgb(254,254,254)" stroke="rgb(254,254,254)" stroke-width="1" opacity="0.18823529411764706" d="M 107.5 144 L 109 144.5 L 105.5 146 L 105.5 145 L 107.5 144 Z " /><path fill="rgb(254,254,254)" stroke="rgb(254,254,254)" stroke-width="1" opacity="0.18823529411764706" d="M 471.5 145 L 472 151.5 L 471 151.5 L 471.5 145 Z " /><path fill="rgb(254,254,254)" stroke="rgb(254,254,254)" stroke-width="1" opacity="0.18823529411764706" d="M 101.5 146 L 104 146.5 L 101.5 147 L 101.5 146 Z " /><path fill="rgb(254,254,254)" stroke="rgb(254,254,254)" stroke-width="1" opacity="0.18823529411764706" d="M 96.5 147 L 100 147.5 L 96.5 148 L 96.5 147 Z " /><path fill="rgb(254,254,254)" stroke="rgb(254,254,254)" stroke-width="1" opacity="0.18823529411764706" d="M 73.5 148 L 74 177.5 L 73 177.5 L 73.5 148 Z " /><path fill="rgb(254,254,254)" stroke="rgb(254,254,254)" stroke-width="1" opacity="0.18823529411764706" d="M 133.5 150 L 134 153.5 L 133 153.5 L 133.5 150 Z " /><path fill="rgb(254,254,254)" stroke="rgb(254,254,254)" stroke-width="1" opacity="0.18823529411764706" d="M 182.5 151 L 183 153.5 L 182 153.5 L 182.5 151 Z " /><path fill="rgb(254,254,254)" stroke="rgb(254,254,254)" stroke-width="1" opacity="0.18823529411764706" d="M 233.5 151 L 237 151.5 L 233.5 152 L 233.5 151 Z " /><path fill="rgb(254,254,254)" stroke="rgb(254,254,254)" stroke-width="1" opacity="0.18823529411764706" d="M 239.5 152 L 243 152.5 L 239.5 153 L 239.5 152 Z " /><path fill="rgb(254,254,254)" stroke="rgb(254,254,254)" stroke-width="1" opacity="0.18823529411764706" d="M 275.5 152 L 276 155.5 L 275 155.5 L 275.5 152 Z " /><path fill="rgb(254,254,254)" stroke="rgb(254,254,254)" stroke-width="1" opacity="0.18823529411764706" d="M 156.5 153 Q 157.6 159.4 162 162.5 L 158 159.5 Q 155 157 156.5 153 Z " /><path fill="rgb(254,254,254)" stroke="rgb(254,254,254)" stroke-width="1" opacity="0.18823529411764706" d="M 204.5 153 L 205 155.5 L 204 155.5 L 204.5 153 Z " /><path fill="rgb(254,254,254)" stroke="rgb(254,254,254)" stroke-width="1" opacity="0.18823529411764706" d="M 246.5 153 L 250 153.5 L 246.5 154 L 246.5 153 Z " /><path fill="rgb(254,254,254)" stroke="rgb(254,254,254)" stroke-width="1" opacity="0.18823529411764706" d="M 251.5 154 L 256 157.5 L 255.5 161 Q 255.7 156.3 252.5 155 L 251.5 154 Z " /><path fill="rgb(254,254,254)" stroke="rgb(254,254,254)" stroke-width="1" opacity="0.18823529411764706" d="M 472.5 154 L 473 156.5 L 472 156.5 L 472.5 154 Z " /><path fill="rgb(254,254,254)" stroke="rgb(254,254,254)" stroke-width="1" opacity="0.18823529411764706" d="M 518.5 154 L 519 155.5 L 514.5 161 L 517 157.5 L 518.5 154 Z " /><path fill="rgb(254,254,254)" stroke="rgb(254,254,254)" stroke-width="1" opacity="0.18823529411764706" d="M 181.5 155 L 182 156.5 L 175.5 164 Q 172.3 166.3 165.5 165 L 165.5 164 Q 177.3 165.8 180 158.5 L 181.5 155 Z " /><path fill="rgb(254,254,254)" stroke="rgb(254,254,254)" stroke-width="1" opacity="0.18823529411764706" d="M 315.5 155 L 316 158.5 L 315 158.5 L 315.5 155 Z " /><path fill="rgb(254,254,254)" stroke="rgb(254,254,254)" stroke-width="1" opacity="0.18823529411764706" d="M 203.5 157 L 204 159.5 L 202.5 162 L 202 160.5 L 203.5 157 Z " /><path fill="rgb(254,254,254)" stroke="rgb(254,254,254)" stroke-width="1" opacity="0.18823529411764706" d="M 496.5 157 L 502 161.5 L 500.5 162 L 496.5 157 Z " /><path fill="rgb(254,254,254)" stroke="rgb(254,254,254)" stroke-width="1" opacity="0.18823529411764706" d="M 473.5 158 L 479 167.5 L 476 165.5 L 473.5 158 Z " /><path fill="rgb(254,254,254)" stroke="rgb(254,254,254)" stroke-width="1" opacity="0.18823529411764706" d="M 218.5 160 L 222 161.5 L 220.5 162 L 218.5 160 Z " /><path fill="rgb(254,254,254)" stroke="rgb(254,254,254)" stroke-width="1" opacity="0.18823529411764706" d="M 316.5 160 L 317.5 162 L 316.5 160 Z " /><path fill="rgb(254,254,254)" stroke="rgb(254,254,254)" stroke-width="1" opacity="0.18823529411764706" d="M 294.5 161 L 295 164.5 L 294 164.5 L 294.5 161 Z " /><path fill="rgb(254,254,254)" stroke="rgb(254,254,254)" stroke-width="1" opacity="0.18823529411764706" d="M 254.5 162 L 253.5 164 L 254.5 162 Z " /><path fill="rgb(254,254,254)" stroke="rgb(254,254,254)" stroke-width="1" opacity="0.18823529411764706" d="M 275.5 162 L 276 164.5 L 275 164.5 L 275.5 162 Z " /><path fill="rgb(254,254,254)" stroke="rgb(254,254,254)" stroke-width="1" opacity="0.18823529411764706" d="M 319.5 162 L 324 162.5 L 319.5 163 L 319.5 162 Z " /><path fill="rgb(254,254,254)" stroke="rgb(254,254,254)" stroke-width="1" opacity="0.18823529411764706" d="M 503.5 162 L 511 162.5 L 503.5 163 L 503.5 162 Z " /><path fill="rgb(254,254,254)" stroke="rgb(254,254,254)" stroke-width="1" opacity="0.18823529411764706" d="M 201.5 163 L 201 164.5 L 194.5 173 L 198 168.5 L 201.5 163 Z " /><path fill="rgb(254,254,254)" stroke="rgb(254,254,254)" stroke-width="1" opacity="0.18823529411764706" d="M 137.5 164 L 146.5 174 L 149 175.5 L 147.5 175 L 138 166.5 L 137.5 164 Z " /><path fill="rgb(254,254,254)" stroke="rgb(254,254,254)" stroke-width="1" opacity="0.18823529411764706" d="M 230.5 164 L 233 164.5 L 230.5 165 L 230.5 164 Z " /><path fill="rgb(254,254,254)" stroke="rgb(254,254,254)" stroke-width="1" opacity="0.18823529411764706" d="M 235.5 165 L 250 165.5 L 235.5 166 L 235.5 165 Z " /><path fill="rgb(254,254,254)" stroke="rgb(254,254,254)" stroke-width="1" opacity="0.18823529411764706" d="M 274.5 166 L 275 167.5 L 267.5 176 L 273 169.5 L 274.5 166 Z " /><path fill="rgb(254,254,254)" stroke="rgb(254,254,254)" stroke-width="1" opacity="0.18823529411764706" d="M 520.5 167 L 521 175.5 L 520 175.5 Q 521.5 170 519 168.5 L 520.5 167 Z " /><path fill="rgb(254,254,254)" stroke="rgb(254,254,254)" stroke-width="1" opacity="0.18823529411764706" d="M 296.5 169 L 301 174.5 L 297 171.5 L 296.5 169 Z " /><path fill="rgb(254,254,254)" stroke="rgb(254,254,254)" stroke-width="1" opacity="0.18823529411764706" d="M 479.5 169 L 482.5 173 L 479.5 169 Z " /><path fill="rgb(254,254,254)" stroke="rgb(254,254,254)" stroke-width="1" opacity="0.18823529411764706" d="M 617.5 169 L 682 169.5 L 617.5 170 L 617.5 169 Z " /><path fill="rgb(254,254,254)" stroke="rgb(254,254,254)" stroke-width="1" opacity="0.18823529411764706" d="M 518.5 170 L 517.5 172 L 518.5 170 Z " /><path fill="rgb(254,254,254)" stroke="rgb(254,254,254)" stroke-width="1" opacity="0.18823529411764706" d="M 515.5 172 L 513.5 175 L 511.5 176 L 512.5 174 L 515.5 172 Z " /><path fill="rgb(254,254,254)" stroke="rgb(254,254,254)" stroke-width="1" opacity="0.18823529411764706" d="M 192.5 173 L 190.5 176 L 187.5 177 L 187.5 176 L 192.5 173 Z " /><path fill="rgb(254,254,254)" stroke="rgb(254,254,254)" stroke-width="1" opacity="0.18823529411764706" d="M 484.5 173 L 485.5 175 L 484.5 173 Z " /><path fill="rgb(254,254,254)" stroke="rgb(254,254,254)" stroke-width="1" opacity="0.18823529411764706" d="M 217.5 176 L 220 176.5 L 217.5 177 L 217.5 176 Z " /><path fill="rgb(254,254,254)" stroke="rgb(254,254,254)" stroke-width="1" opacity="0.18823529411764706" d="M 541.5 176 L 542 179.5 L 541 179.5 L 541.5 176 Z " /><path fill="rgb(254,254,254)" stroke="rgb(254,254,254)" stroke-width="1" opacity="0.18823529411764706" d="M 221.5 177 L 224 177.5 L 221.5 178 L 221.5 177 Z " /><path fill="rgb(254,254,254)" stroke="rgb(254,254,254)" stroke-width="1" opacity="0.18823529411764706" d="M 307.5 177 L 311 177.5 L 307.5 178 L 307.5 177 Z " /><path fill="rgb(254,254,254)" stroke="rgb(254,254,254)" stroke-width="1" opacity="0.18823529411764706" d="M 492.5 177 L 495 177.5 L 492.5 178 L 492.5 177 Z " /><path fill="rgb(254,254,254)" stroke="rgb(254,254,254)" stroke-width="1" opacity="0.18823529411764706" d="M 504.5 177 L 507 177.5 L 504.5 178 L 504.5 177 Z " /><path fill="rgb(254,254,254)" stroke="rgb(254,254,254)" stroke-width="1" opacity="0.18823529411764706" d="M 181.5 178 L 184 178.5 L 181.5 179 L 181.5 178 Z " /><path fill="rgb(254,254,254)" stroke="rgb(254,254,254)" stroke-width="1" opacity="0.18823529411764706" d="M 226.5 178 L 229 178.5 L 226.5 179 L 226.5 178 Z " /><path fill="rgb(254,254,254)" stroke="rgb(254,254,254)" stroke-width="1" opacity="0.18823529411764706" d="M 159.5 179 L 163 179.5 L 159.5 180 L 159.5 179 Z " /><path fill="rgb(254,254,254)" stroke="rgb(254,254,254)" stroke-width="1" opacity="0.18823529411764706" d="M 176.5 179 L 180 179.5 L 176.5 180 L 176.5 179 Z " /><path fill="rgb(254,254,254)" stroke="rgb(254,254,254)" stroke-width="1" opacity="0.18823529411764706" d="M 231.5 179 L 237 179.5 L 231.5 180 L 231.5 179 Z " /><path fill="rgb(254,254,254)" stroke="rgb(254,254,254)" stroke-width="1" opacity="0.18823529411764706" d="M 253.5 179 L 257 179.5 L 253.5 180 L 253.5 179 Z " /><path fill="rgb(254,254,254)" stroke="rgb(254,254,254)" stroke-width="1" opacity="0.18823529411764706" d="M 517.5 183 L 514.5 187 L 517.5 183 Z " /><path fill="rgb(254,254,254)" stroke="rgb(254,254,254)" stroke-width="1" opacity="0.18823529411764706" d="M 479 184 L 486 186.5 L 484.5 187 L 480 185 L 480 199.5 L 481 200.5 L 479 201 L 479 184 Z " /><path fill="rgb(254,254,254)" stroke="rgb(254,254,254)" stroke-width="1" opacity="0.18823529411764706" d="M 538.5 187 L 539 188.5 L 531.5 197 L 536 191.5 L 538.5 187 Z " /><path fill="rgb(254,254,254)" stroke="rgb(254,254,254)" stroke-width="1" opacity="0.18823529411764706" d="M 494.5 189 L 508 189.5 L 494.5 190 L 494.5 189 Z " /><path fill="rgb(254,254,254)" stroke="rgb(254,254,254)" stroke-width="1" opacity="0.18823529411764706" d="M 529.5 197 L 528.5 199 L 526.5 200 L 527.5 198 L 529.5 197 Z " /><path fill="rgb(254,254,254)" stroke="rgb(254,254,254)" stroke-width="1" opacity="0.18823529411764706" d="M 523.5 200 L 525 200.5 L 521.5 202 L 521.5 201 L 523.5 200 Z " /><path fill="rgb(254,254,254)" stroke="rgb(254,254,254)" stroke-width="1" opacity="0.18823529411764706" d="M 482.5 201 L 485 201.5 L 482.5 202 L 482.5 201 Z " /><path fill="rgb(254,254,254)" stroke="rgb(254,254,254)" stroke-width="1" opacity="0.18823529411764706" d="M 486.5 202 L 489 202.5 L 486.5 203 L 486.5 202 Z " /><path fill="rgb(254,254,254)" stroke="rgb(254,254,254)" stroke-width="1" opacity="0.18823529411764706" d="M 517.5 202 L 520 202.5 L 517.5 203 L 517.5 202 Z " /><path fill="rgb(254,254,254)" stroke="rgb(254,254,254)" stroke-width="1" opacity="0.18823529411764706" d="M 491.5 203 L 495 203.5 L 491.5 204 L 491.5 203 Z " /><path fill="rgb(254,254,254)" stroke="rgb(254,254,254)" stroke-width="1" opacity="0.18823529411764706" d="M 511.5 203 L 515 203.5 L 511.5 204 L 511.5 203 Z " /></svg>